<svg width="74" height="60" viewBox="0 0 74 60" fill="none" xmlns="http://www.w3.org/2000/svg">
<path d="M21.6041 20.293L13.0346 19.7614C11.3924 19.7614 10.9327 17.3097 10.9327 17.3097C12.0421 15.3214 12.2687 13.7072 12.2687 11.5437V9.6286C12.2687 7.47293 12.3282 5.43434 11.2265 3.45211C11.2265 3.45211 11.6701 0.968794 13.311 0.968794L13.6571 0.879028H21.6095C23.2504 0.879028 24.3573 2.16833 23.7126 3.32848L23.6937 3.36235C22.5922 5.34458 22.0242 7.47786 22.0242 9.63352V11.5486C22.0242 13.7121 22.5962 15.853 23.7056 17.8413C24.3535 19.0017 22.8228 19.3009 21.6041 20.293V20.293Z" fill="#95D6A4"/>
<path d="M23.8597 18.3492C23.8597 19.1191 22.5896 19.1196 21.5699 19.9493L12.4121 19.9692C10.7691 19.9692 9.75019 19.0959 10.398 17.9346C10.593 17.5854 10.7714 17.2303 10.9329 16.8717L13.4063 16.7776H23.1707C23.3323 17.1362 23.5106 17.4913 23.7057 17.8405C23.8124 18.0316 23.8597 18.198 23.8597 18.3492V18.3492Z" fill="#FBF0DC"/>
<path d="M20.5581 39.1793L11.9241 39.707C10.6945 38.8438 9.17473 38.4156 9.82219 37.2552C10.9316 35.267 12.1267 33.1211 12.1267 30.9576V29.0426C12.1267 26.8869 10.6739 22.7767 10.6739 22.7767C10.0292 21.6165 11.4457 20.847 13.0866 20.847L21.1986 20.8769C22.8395 20.8769 23.343 21.5718 22.6983 22.732C22.6983 22.732 23.3318 23.4607 23.1745 23.809C22.4144 25.4911 22.0245 27.2617 22.0245 29.0476V30.9627C22.0245 32.7452 22.4128 34.5123 23.17 36.1915C23.3319 36.5504 22.4645 36.3776 22.6599 36.7277C22.6601 36.7274 22.2005 39.1793 20.5581 39.1793V39.1793Z" fill="#95D6A4"/>
<path d="M23.7134 22.7426L23.6936 22.7766C23.5046 23.1164 23.3324 23.4609 23.1754 23.809H10.3528C10.1958 23.4609 11.3299 20.5777 12.9699 20.5777L16.7468 19.5703L21.6101 20.2934C23.2501 20.2934 24.3581 21.5824 23.7134 22.7426V22.7426Z" fill="#FBF0DC"/>
<path d="M45.4139 39.707L34.684 38.8278C33.0418 38.8278 32.6921 37.1235 32.6921 37.1235C33.8016 35.1353 34.4935 33.0038 34.4935 30.8403V26.6787C34.4935 26.0053 34.8316 26.1137 34.4874 25.4945L36.3385 22.5956L42.5849 25.1216C43.5869 25.5267 44.2142 26.3255 44.2142 27.196V30.9625C44.2142 33.126 44.7862 35.2669 45.8957 37.2552L46.5344 38.3999C46.8796 39.0185 46.2895 39.707 45.4139 39.707V39.707Z" fill="#95D6A4"/>
<path d="M42.7134 58.666L35.0507 58.5265C33.4085 58.5265 32.9488 56.0747 32.9488 56.0747C34.0582 54.0865 34.629 52.6268 34.629 50.4633V48.5482C34.629 46.3925 33.0413 42.3397 33.0413 42.3397C32.3966 41.1796 33.5036 39.8903 35.1445 39.8903L43.2581 40.3351C44.899 40.3351 45.3076 42.23 45.3076 42.23C45.1188 42.5698 45.5219 42.8743 45.3646 43.2222C44.6042 44.9046 44.2142 46.6754 44.2142 48.4617V50.3768C44.2142 52.5403 44.7862 54.6812 45.8956 56.6695C46.0398 56.9279 46.097 57.1929 46.0807 57.4486C46.0237 58.3408 43.99 58.666 42.7134 58.666Z" fill="#95D6A4"/>
<path d="M35.1646 56.6081C35.964 54.5835 36.8771 52.5423 36.7414 50.3764C36.8443 47.9797 36.638 45.4959 35.6058 43.2183L34.3078 42.2298L32.9024 42.3395L32.5279 43.2259C34.3531 47.4153 34.1797 52.6827 32.0123 56.6694C31.884 56.8992 31.8255 57.1341 31.8255 57.3632H31.8249C31.8049 58.306 32.8847 59.1421 34.1141 59.121H37.1624H43.794C45.1108 59.121 46.0832 58.2901 46.0832 57.3632H35.8945C35.3834 57.3633 35.0161 56.9841 35.1646 56.6081V56.6081Z" fill="#78C2A4"/>
<path d="M45.4434 39.3117L34.4872 39.1758C32.8472 39.1723 32.4162 38.6815 33.0624 37.5225C33.2575 37.1721 33.4359 36.8171 33.5974 36.4585L35.5662 36.191H45.3606C45.5222 36.5496 45.7005 36.9047 45.8956 37.2551L46.5342 38.4C46.8803 39.0188 46.3182 39.3117 45.4434 39.3117V39.3117Z" fill="#FBF0DC"/>
<path d="M32.4757 39.1758C32.542 39.2285 32.6127 39.2801 32.6895 39.3258C32.6142 39.2801 32.542 39.2297 32.4757 39.1758Z" fill="#F4E2C1"/>
<path d="M45.9018 42.1559L45.8836 42.1898C45.6946 42.5297 45.5223 42.8742 45.3653 43.2223H32.5427C32.3798 42.8628 33.0795 42.4603 32.8811 42.1102C32.2364 40.95 32.9891 39.9366 34.6291 39.9366L39.2302 38.7391L43.8002 39.7065C45.44 39.7066 46.5481 40.9957 45.9018 42.1559Z" fill="#FBF0DC"/>
<path d="M35.0729 42.1899C35.2619 42.5297 35.4341 42.8742 35.5911 43.2223H32.5428C32.3797 42.8629 32.2018 42.506 32.0048 42.1559C31.3601 40.9957 32.4681 39.7067 34.1081 39.7067H37.1564C35.5164 39.7067 34.4083 40.9957 35.0531 42.1559L35.0729 42.1899Z" fill="#F4E2C1"/>
<path d="M10.9328 17.6754L10.3579 16.778C10.6559 16.1177 10.8968 15.4438 11.0796 14.7609C11.36 13.7063 11.5033 12.6305 11.5033 11.5488V9.63398C11.5033 7.47773 10.9363 5.34492 9.83434 3.36211L9.81453 3.32813C9.16981 2.16797 10.2779 0.878906 11.9178 0.878906H14.9661C13.3262 0.878906 12.2181 2.16797 12.8628 3.32813L12.8826 3.36211C13.9846 5.34492 14.5516 7.47773 14.5516 9.63398V11.5488C14.5516 12.6305 14.4083 13.7063 14.1279 14.7609C13.9451 15.4437 13.7041 16.1176 13.4062 16.778L11.9579 17.6754H10.9328Z" fill="#78C2A4"/>
<path d="M23.7058 17.8406C23.5777 17.6109 23.4573 17.3789 23.3445 17.1457C22.8903 17.4867 22.209 17.809 21.604 18.3011H13.5383C13.1044 18.3011 12.8064 17.9626 12.9718 17.6542C13.1286 17.3617 13.2788 17.0655 13.4057 16.7777H10.3574C10.1967 17.1374 10.017 17.4919 9.82186 17.8418C9.17441 19.0023 10.282 20.2933 11.9243 20.2933H14.9726H21.6041C22.6238 19.4636 23.8598 19.1191 23.8598 18.3492C23.8597 18.198 23.8124 18.0316 23.7058 17.8406V17.8406Z" fill="#F4E2C1"/>
<path d="M30.2105 12.8417C28.9658 14.8941 27.0595 16.6612 25.329 17.9895C23.9858 19.0205 23.6271 18.2058 22.887 18.6362C22.5787 18.8155 22.1342 18.6562 22.1147 18.3593C22.0076 16.7287 21.9273 14.2314 24.1383 10.5859C26.3493 6.94045 29.19 4.6976 30.8834 3.71252C31.1918 3.53323 31.8048 3.29604 31.8243 3.59287C31.8327 3.71979 32.3033 3.53955 32.3097 3.69717C32.3849 5.56514 32.2492 9.48002 30.2105 12.8417Z" fill="#95D6A4"/>
<path d="M27.4277 8.84528C25.3899 12.2074 25.2527 16.1226 25.3289 17.9894C23.9846 19.0207 22.7486 19.7871 22.0078 20.2172C21.6999 20.3965 21.2549 20.2371 21.2366 19.9406C21.1284 18.3105 21.1025 14.0144 23.3125 10.3687C25.524 6.72302 29.8206 3.97731 31.5154 2.99294C31.8233 2.81364 32.2668 2.97302 32.2867 3.2695C32.2943 3.39606 32.3034 3.53903 32.3095 3.69723C30.5781 5.02497 28.6729 6.79333 27.4277 8.84528V8.84528Z" fill="#78C2A4"/>
<path d="M9.82231 37.2551C10.3771 36.2601 10.7978 35.2289 11.0797 34.1742C11.3602 33.1195 11.5034 32.0437 11.5034 30.9621V29.0473C11.5034 27.2617 11.1142 25.4906 10.3539 23.8086L10.635 22.9862L11.948 22.5598L12.4251 23.1656C12.4251 23.1656 13.2449 23.4605 13.4022 23.8085C14.1625 25.4905 14.5517 27.2616 14.5517 29.0471V30.962C14.5517 32.0436 14.4085 33.1194 14.128 34.1741C13.8461 35.2288 13.4254 36.26 12.8706 37.2549C12.2228 38.4152 9.17455 38.4152 9.82231 37.2551V37.2551Z" fill="#78C2A4"/>
<path d="M23.8932 37.95C23.8932 38.877 22.1863 39.0085 20.8694 39.0085L12.0748 39.2508C10.8448 38.3883 9.17451 38.4153 9.82227 37.2551C10.0174 36.9047 10.1957 36.5496 10.3572 36.191H23.1707C23.3323 36.5496 23.5106 36.9047 23.7057 37.2551C23.8337 37.4848 23.8932 37.7203 23.8932 37.95Z" fill="#FBF0DC"/>
<path d="M23.8872 37.8317L13.296 37.8223C12.9795 37.8221 12.7588 37.581 12.8662 37.352C13.0542 36.9511 13.3087 36.4064 13.4058 36.191H10.3575C10.2985 36.3239 10.236 36.4565 10.1706 36.5875C10.1705 36.5874 10.1702 36.5873 10.17 36.5871C10.0618 36.811 9.94596 37.0336 9.82251 37.2551C9.17475 38.4153 10.6943 38.8442 11.9243 39.7067L16.4339 41.4645L21.6041 39.7067C22.921 39.7067 23.8934 38.877 23.8934 37.95C23.8933 37.9114 23.8917 37.8715 23.8872 37.8317V37.8317Z" fill="#F4E2C1"/>
<path d="M12.8828 22.7765C13.0717 23.1164 13.244 23.4609 13.401 23.809H10.3527C10.3161 23.7258 10.278 23.6437 10.2368 23.5605C10.1119 23.2969 9.97773 23.0355 9.83446 22.7765L9.81465 22.7426C9.16993 21.5824 10.278 20.2933 11.918 20.2933H14.9663C13.3263 20.2933 12.2182 21.5824 12.8629 22.7426L12.8828 22.7765Z" fill="#F4E2C1"/>
<path d="M4.01962 31.9772C6.23054 35.6226 9.33065 37.4387 11.0241 38.4236C11.3325 38.6029 11.7769 38.4436 11.7964 38.1467C11.8441 37.4209 12.3108 37.3747 12.1365 35.8851C11.9191 34.0283 11.3814 31.8053 10.1546 29.7824C8.09732 26.3901 4.23315 23.7773 2.34169 22.637C2.2004 22.5518 1.95791 22.8002 1.84024 22.7318C1.53191 22.5525 1.47064 23.0034 1.45113 23.3003C1.34413 24.931 1.80854 28.3317 4.01962 31.9772V31.9772Z" fill="#95D6A4"/>
<path d="M12.232 39.3551C12.2122 39.6516 11.7671 39.8109 11.4593 39.6316C9.76594 38.6461 5.46785 35.9016 3.25632 32.2559C1.04631 28.6101 1.07374 24.3141 1.18044 22.684C1.20025 22.3863 1.64378 22.2269 1.95318 22.4062C2.07054 22.4742 2.20009 22.5516 2.34183 22.6371C2.55979 24.4933 3.09781 26.7176 4.32322 28.7402C6.38082 32.1328 10.246 34.7449 12.1375 35.8851C12.3113 37.3746 12.2793 38.6285 12.232 39.3551V39.3551Z" fill="#78C2A4"/>
<path d="M20.5581 58.6062L12.8919 58.7258C11.2497 58.7258 10.79 56.274 10.79 56.274C11.8994 54.2858 12.2972 52.5351 12.2972 50.3716V48.4565C12.2972 46.3008 11.4446 44.0874 10.343 42.1051C10.343 42.1051 10.7645 40.1154 12.4054 40.1154L21.3558 40.4297C22.9967 40.4297 23.1996 42.2997 23.1996 42.2997L23.1747 43.2222C22.4143 44.9045 22.0245 46.6753 22.0245 48.4615V50.3766C22.0245 52.5401 22.5965 54.681 23.7059 56.6693C23.8342 56.8992 23.8935 57.1342 23.8937 57.3633C23.894 58.2907 21.8751 58.6062 20.5581 58.6062V58.6062Z" fill="#95D6A4"/>
<path d="M13.4778 57.3633C13.0166 57.3633 12.6866 57.0028 12.8667 56.6764C12.868 56.6741 12.8693 56.6719 12.8706 56.6695C13.4253 55.6758 13.846 54.6422 14.128 53.5887C14.4084 52.534 14.5517 51.4582 14.5517 50.3766V48.4617C14.5517 46.6751 14.1624 44.9045 13.402 43.222L12.425 42.3696L10.7646 42.3397L10.3508 43.2228C11.8177 46.5155 11.8015 50.1921 11.0797 53.5888C10.7977 54.6423 10.3771 55.6759 9.82226 56.6696C9.69393 56.8994 9.6354 57.1343 9.6354 57.3634H9.63479C9.61483 58.3063 10.6947 59.1423 11.9241 59.1212H14.9723H21.6039C22.9208 59.1212 23.8932 58.2915 23.8932 57.3646V57.3634H13.4778V57.3633Z" fill="#78C2A4"/>
<path d="M23.7134 42.1559L23.6936 42.1899C23.5046 42.5297 23.3324 42.8742 23.1754 43.2223H10.3527C10.1958 42.8742 10.9537 42.6795 10.7647 42.3396C10.7647 42.3396 10.2014 40.2053 11.8414 40.2053L14.0206 39.7067H21.6101C23.2501 39.7067 24.3581 40.9957 23.7134 42.1559V42.1559Z" fill="#FBF0DC"/>
<path d="M12.8828 42.1899C13.0717 42.5297 13.244 42.8742 13.401 43.2223H10.3527C10.3161 43.1391 10.278 43.0571 10.2368 42.9739C10.1119 42.7102 9.97773 42.4489 9.83446 42.1899L9.81465 42.1559C9.16993 40.9957 10.278 39.7067 11.918 39.7067H14.9663C13.3263 39.7067 12.2182 40.9957 12.8629 42.1559L12.8828 42.1899Z" fill="#F4E2C1"/>
<path d="M32.8939 37.2133C32.8939 37.2133 32.3862 36.55 32.5481 36.1913C32.8459 35.5311 33.0864 34.8575 33.2681 34.1742C33.5501 33.1195 33.6933 32.0438 33.6933 30.9621V26.8008C33.6933 26.1281 33.5165 25.4613 33.1721 24.8426C33.0395 24.6047 32.98 24.368 32.98 24.1395C32.98 22.9078 34.7313 21.9457 36.3377 22.5961L36.577 22.6922C36.2371 23.0039 36.0283 23.4047 36.0283 23.8383C36.0283 24.0703 36.0878 24.3117 36.2204 24.5543C36.5648 25.1859 36.7416 25.8645 36.7416 26.5512V30.7934C36.7416 31.8961 36.5984 32.993 36.3164 34.0676C36.1286 34.7871 35.8779 35.4967 35.5662 36.1914L34.2948 37.1834L32.8939 37.2133Z" fill="#78C2A4"/>
<path d="M46.5344 38.4L46.2174 37.8317H35.6078C35.1933 37.8317 34.8977 37.5086 35.0573 37.2144C35.0584 37.2123 35.0596 37.2103 35.0607 37.2082C35.2436 36.8731 35.4127 36.5332 35.5652 36.191H32.5473C32.3861 36.5505 32.207 36.9053 32.0124 37.2551C31.8859 37.4837 31.8191 37.7312 31.8261 37.9793C31.8366 38.4447 32.0912 38.8831 32.5108 39.2019C32.9863 39.5738 33.6615 39.7371 34.3379 39.7067C34.889 39.7226 35.552 39.7139 36.1105 39.7067H45.4143C46.289 39.7067 46.8804 39.0188 46.5344 38.4V38.4Z" fill="#F4E2C1"/>
<path d="M52.4374 32.2556C51.4109 33.9481 49.9346 35.4466 48.478 36.665C46.7971 38.0709 45.9494 38.4007 45.0422 38.9284C44.7339 39.1077 44.2895 38.9483 44.27 38.6515C44.1628 37.0208 44.4237 34.2045 46.6347 30.5591C48.8456 26.9136 51.5526 24.1257 53.2461 23.1406C53.5544 22.9613 53.9989 23.1207 54.0184 23.4175C54.0307 23.6061 54.5377 23.096 54.5447 23.3506C54.5976 25.2988 54.3927 29.0315 52.4374 32.2556V32.2556Z" fill="#95D6A4"/>
<path d="M50.2639 28.0242C48.31 31.248 48.1042 34.9805 48.1561 36.9293C46.5892 38.2008 45.0849 39.1371 44.236 39.6316C43.9266 39.8109 43.483 39.6516 43.4632 39.3551C43.3565 37.7238 43.3291 33.4277 45.5391 29.782C47.7506 26.1375 52.0487 23.3918 53.742 22.4062C54.0499 22.2269 54.495 22.3863 54.5148 22.684C54.527 22.8715 54.5392 23.0965 54.5468 23.3508C52.9861 24.6141 51.3659 26.2078 50.2639 28.0242V28.0242Z" fill="#78C2A4"/>
<path d="M56.4606 38.9506C53.6827 39.728 50.6978 39.9399 48.2474 39.9367C46.3616 39.9342 46.3581 39.4094 45.4433 39.3119C45.0604 39.2711 44.8926 38.9167 45.1519 38.6962C46.5757 37.4849 49.6307 35.4075 54.5467 34.0319C59.4627 32.6562 63.232 32.6906 65.3355 32.9148C65.7184 32.9556 66.4768 33.173 66.2175 33.3935C66.1028 33.4912 66.4862 33.5183 66.3396 33.6381C64.6681 35.0036 60.9804 37.6856 56.4606 38.9506V38.9506Z" fill="#95D6A4"/>
<path d="M66.7324 33.3105C66.6181 33.4078 66.487 33.5179 66.3392 33.6375C63.8899 33.634 60.9041 33.8449 58.1256 34.623C53.6049 35.8886 49.9165 38.5711 48.2476 39.9363C46.3622 39.934 44.7923 39.8039 43.8779 39.7066C43.4953 39.6656 43.3276 39.3117 43.5867 39.0914C45.0103 37.8797 48.9411 34.8269 53.858 33.4511C58.7733 32.0754 64.338 32.4715 66.4413 32.6953C66.8239 32.7363 66.9915 33.0902 66.7324 33.3105V33.3105Z" fill="#78C2A4"/>
<path d="M67.9015 32.6354C67.6952 32.1991 67.1956 31.8885 66.5975 31.8247C65.6924 31.7283 64.2492 31.6092 62.5117 31.5894C62.5059 31.5894 62.5001 31.5893 62.4945 31.5893C61.871 31.5893 61.361 31.9743 61.3518 32.4552C61.3424 32.9406 61.8466 33.3398 62.4779 33.347C63.4234 33.3578 64.2745 33.4 64.9866 33.4511C63.1977 34.8437 59.9457 37.0399 56.0696 38.1246C52.1935 39.2094 47.8657 39.1342 45.3312 38.9514C47.1203 37.5586 50.3728 35.3623 54.2486 34.2776C55.2031 34.0104 56.2504 33.7973 57.3615 33.6443C57.9829 33.5588 58.3964 33.102 58.2851 32.6241C58.1735 32.1462 57.579 31.8284 56.9582 31.914C55.7221 32.0843 54.5505 32.323 53.4757 32.6232C55.785 28.8127 55.7698 24.372 55.6558 22.6392C55.6255 22.1759 55.2665 21.7662 54.7195 21.57C54.1725 21.3738 53.5336 21.4257 53.0523 21.7057C51.4542 22.6351 47.7799 24.9836 45.3575 28.1654V27.1959C45.3575 25.9954 44.4989 24.9025 43.1171 24.3437L36.8709 21.8177C35.5692 21.2914 34.0297 21.4468 32.9489 22.2136C31.8682 22.9804 31.5431 24.1477 32.1209 25.1873C32.4059 25.7003 32.5504 26.2432 32.5504 26.8009V30.9625C32.5504 33.0185 32.0159 35.0191 30.9614 36.9086C30.5054 37.7259 30.6132 38.6572 31.2498 39.3998C31.3428 39.5082 31.4458 39.6094 31.5562 39.7045C31.4443 39.8006 31.3397 39.9027 31.2457 40.0123C30.6089 40.7539 30.4998 41.6845 30.9537 42.5013C31.9476 44.2552 32.565 46.4434 32.5504 48.4615C32.5484 49.1255 32.5545 50.0571 32.5478 50.6227C32.5374 51.1081 33.0407 51.5079 33.6718 51.516C33.6782 51.516 33.6846 51.5161 33.691 51.5161C34.3135 51.5161 34.8233 51.1321 34.8337 50.6517C34.8389 50.5744 34.836 48.5532 34.8367 48.4616C34.8367 46.9767 34.5854 45.518 34.0904 44.1016H43.8178C43.3227 45.5181 43.0714 46.9768 43.0714 48.4616V50.3767C43.0714 52.6723 43.6682 54.906 44.8455 57.0158C44.9999 57.2925 44.9648 57.5954 44.7493 57.8468C44.5338 58.0982 44.1857 58.2423 43.7941 58.2423H34.114C33.7224 58.2423 33.3742 58.0982 33.1588 57.8468C32.9433 57.5954 32.9082 57.2926 33.0626 57.0159C33.4447 56.3312 33.7706 55.62 34.0309 54.9023C34.2006 54.4348 33.8451 53.9501 33.237 53.8195C32.6286 53.689 31.9983 53.9624 31.8287 54.4298C31.5955 55.0726 31.3038 55.7094 30.9614 56.3228C30.5054 57.1402 30.6132 58.0714 31.2498 58.8141C31.8865 59.5567 32.957 60 34.1138 60H43.794C44.9507 60 46.0212 59.5567 46.6579 58.8141C47.2946 58.0714 47.4024 57.1402 46.9464 56.3227C45.8921 54.433 45.3575 52.4325 45.3575 50.3764V48.4614C45.3575 46.413 45.8882 44.4193 46.9359 42.5339C47.1678 42.1264 47.3209 41.4655 47.118 40.7988C47.4951 40.8089 47.8883 40.815 48.2966 40.815C50.8477 40.815 53.948 40.5888 56.8518 39.7763C61.9917 38.3379 66.0668 35.1878 67.5802 33.9004C67.9846 33.5564 68.1079 33.0716 67.9015 32.6354V32.6354ZM34.1138 38.8281C33.7223 38.8281 33.374 38.6839 33.1587 38.4326C32.9431 38.1812 32.9081 37.8784 33.0625 37.6017C33.1608 37.4255 33.2535 37.2482 33.3437 37.0703H42.3128C42.2761 37.7486 42.2775 38.3461 42.2936 38.8281H34.1138ZM53.4086 23.7312C53.4244 25.6886 53.1449 29.0098 51.4016 31.8841C50.9822 32.5755 50.4525 33.2774 49.8279 33.9729C47.7213 34.9402 45.9284 36.0852 44.6013 37.0446C44.7178 35.0149 45.2151 32.4062 46.5756 30.154C48.3192 27.2795 51.4484 24.9799 53.4086 23.7312ZM34.4991 23.5055C34.6383 23.4068 35.1434 23.1055 35.8064 23.3735L42.0527 25.8995C42.6808 26.1534 43.0711 26.6502 43.0711 27.1959V30.9625C43.0711 31.4401 43.0994 31.9223 43.1523 32.3987C42.8269 33.4038 42.6173 34.3936 42.4857 35.3123H34.0937C34.5863 33.8992 34.8364 32.4438 34.8364 30.9625V26.8009C34.8364 26.0045 34.6301 25.2293 34.223 24.4968C33.929 23.9673 34.36 23.6041 34.4991 23.5055V23.5055ZM44.754 40.9808C44.9696 41.2318 45.0051 41.5345 44.8505 41.8127C44.7844 41.9329 44.7426 42.0074 44.5689 42.3438H33.3388C33.2846 42.2384 33.2312 42.1321 33.0562 41.8112C32.9024 41.5347 32.938 41.232 33.1535 40.9809C33.369 40.7299 33.7169 40.5859 34.1082 40.5859H43.7993C44.0912 40.5859 44.4372 40.6555 44.754 40.9808Z" fill="black"/>
<path d="M31.2465 13.213C33.5582 9.40172 33.5426 4.95855 33.4288 3.22523C33.3983 2.76187 33.0395 2.35219 32.4923 2.15602C31.945 1.95973 31.3062 2.01187 30.8252 2.29172C29.245 3.21094 25.6334 5.51731 23.2107 8.64516C23.3542 6.94371 23.8676 5.28691 24.7452 3.70758C25.1466 3.03516 25.1409 1.95891 24.4724 1.1843C23.8356 0.442734 22.7655 0 21.6098 0H11.9187C10.7629 0 9.69264 0.442734 9.05585 1.1843C8.51066 1.79566 8.29561 2.87754 8.78288 3.70758C9.82966 5.59125 10.3605 7.58496 10.3605 9.6334V11.5485C10.3605 13.6045 9.826 15.6052 8.7716 17.4947C8.31557 18.3121 8.42333 19.2434 9.05997 19.9861C9.15279 20.0944 9.25597 20.1955 9.36617 20.2907C9.25429 20.3866 9.14989 20.4888 9.05585 20.5983C8.41906 21.34 8.30993 22.2705 8.76413 23.0878C9.59342 24.5498 10.2067 26.4444 10.3249 28.1494C7.90238 24.9757 4.23742 22.6337 2.64225 21.7058C2.16092 21.4259 1.522 21.3737 0.975139 21.57C0.427971 21.7662 0.0691876 22.1759 0.0387047 22.6392C-0.0682903 24.2668 -0.0957252 28.4534 1.95394 32.1659C2.2007 32.6127 2.87194 32.8212 3.45279 32.6314C4.03395 32.4417 4.30509 31.9259 4.05833 31.479C2.52321 28.6986 2.27173 25.5853 2.28606 23.7314C4.24641 24.9802 7.37533 27.2795 9.11865 30.154C10.5584 32.4955 11.1583 35.6701 11.1258 38.3071C9.87554 37.5105 8.1752 36.302 6.64191 34.7863C6.25447 34.4031 5.53614 34.3342 5.03775 34.6322C4.53935 34.9302 4.44973 35.4824 4.83732 35.8656C6.43798 37.4477 8.20035 38.7156 9.53123 39.5728C9.35504 39.7045 9.1947 39.8509 9.056 40.0125C8.41922 40.7542 8.31009 41.6848 8.76398 42.5016C9.75787 44.2554 10.3753 46.4436 10.3607 48.4617V50.3768C10.3607 52.4329 9.82615 54.4335 8.77175 56.323C8.31573 57.1404 8.42348 58.0717 9.06012 58.8143C9.69675 59.5568 10.7675 60.0002 11.9241 60.0002H21.6043C22.761 60.0002 23.8317 59.5569 24.4683 58.8143C25.1049 58.0717 25.2127 57.1404 24.7567 56.3229C23.7024 54.4334 23.1678 52.4329 23.1678 50.3767V48.4616C23.1508 46.5245 23.7276 44.342 24.7641 42.5019C25.2182 41.6848 25.1092 40.7541 24.4724 40.0125C24.3784 39.9029 24.2738 39.8009 24.162 39.7048C24.2723 39.6096 24.3753 39.5085 24.4683 39.4001C25.1049 38.6575 25.2127 37.7262 24.7567 36.9087C23.7024 35.0191 23.1678 33.0186 23.1678 30.9626C23.1678 30.4772 22.6559 30.0837 22.0246 30.0837C21.3933 30.0837 20.8815 30.4772 20.8815 30.9626C20.8815 32.4439 21.1317 33.8993 21.6243 35.3125H13.2095C13.0801 34.4094 12.8752 33.4385 12.5594 32.4519C12.6164 31.958 12.6467 31.4579 12.6467 30.9626V29.0475C12.6467 27.5629 12.3954 26.1041 11.9004 24.6878H21.6308C21.4019 25.3444 21.2222 26.0112 21.098 26.6852C21.0094 27.1659 21.4443 27.6107 22.0695 27.6788C22.6951 27.7474 23.2731 27.4124 23.3616 26.9318C23.5662 25.762 24.0995 24.2655 24.7641 23.0877C25.2182 22.2705 25.1092 21.3398 24.4724 20.5983C24.3264 20.4281 24.1565 20.2746 23.969 20.1376C26.0993 18.7609 29.3718 16.3042 31.2465 13.213V13.213ZM11.9191 19.414C11.5297 19.4128 11.1834 19.269 10.969 19.0187C10.7534 18.7672 10.7184 18.4644 10.8728 18.1877C10.9711 18.0115 11.0639 17.8341 11.1541 17.6562H20.0853C20.0489 18.3326 20.0503 18.9299 20.0666 19.414H11.9191ZM10.9639 2.15285C11.1794 1.90184 11.5274 1.75781 11.9187 1.75781H21.6098C22.001 1.75781 22.349 1.90184 22.5645 2.15285C22.6957 2.3066 22.8184 2.62863 22.643 3.01699C21.4743 5.12027 20.8815 7.34637 20.8815 9.63352C20.8931 10.5929 20.8399 11.8595 20.9535 12.8958C20.6113 13.9311 20.3935 14.952 20.258 15.8984H11.9043C12.3969 14.4852 12.6469 13.03 12.6469 11.5486V9.63352C12.6469 7.34637 12.0543 5.12027 10.8854 3.01699C10.7739 2.81438 10.7202 2.55492 10.9639 2.15285V2.15285ZM21.6098 40.5859C22.001 40.5859 22.349 40.7299 22.5645 40.9809C22.78 41.232 22.8155 41.5346 22.6616 41.8116C22.5948 41.9324 22.5532 42.0068 22.3792 42.3438H11.1493C11.095 42.2384 11.0417 42.1321 10.8667 41.8112C10.7129 41.5346 10.7484 41.232 10.9639 40.9809C11.1794 40.7299 11.5274 40.5859 11.9187 40.5859H21.6098ZM22.5595 57.8467C22.344 58.098 21.9958 58.2422 21.6043 58.2422H11.9241C11.5326 58.2422 11.1845 58.098 10.969 57.8467C10.7534 57.5953 10.7184 57.2925 10.8728 57.0158C12.05 54.9061 12.6469 52.6724 12.6469 50.3766V48.4615C12.6469 46.9766 12.3956 45.5179 11.9005 44.1015H21.6279C21.1329 45.5179 20.8815 46.9766 20.8815 48.4615V50.3766C20.8815 52.6723 21.4784 54.9061 22.6556 57.0157C22.8099 57.2925 22.7748 57.5953 22.5595 57.8467V57.8467ZM22.3743 37.0702C22.4645 37.248 22.5572 37.4254 22.6555 37.6016C22.8099 37.8783 22.7748 38.1812 22.5593 38.4326C22.3438 38.6839 21.9957 38.8281 21.6041 38.8281H13.4009C13.4172 38.344 13.4186 37.7467 13.3821 37.0703H22.3743V37.0702ZM11.1493 22.9297C11.095 22.8243 11.0418 22.7182 10.8667 22.397C10.7129 22.1204 10.7484 21.8177 10.9639 21.5667C11.1791 21.3159 11.5266 21.1721 11.9173 21.1718C11.9196 21.1718 11.9219 21.1719 11.9241 21.1719C11.9261 21.1719 11.9281 21.1717 11.9301 21.1717H21.6098C22.001 21.1717 22.349 21.3157 22.5645 21.5667C22.78 21.8177 22.8155 22.1204 22.6619 22.3969C22.5948 22.5178 22.5532 22.5922 22.3782 22.9297H11.1493ZM22.3415 18.893C22.3357 16.361 22.7543 13.4378 24.3487 10.74C26.0918 7.86586 29.221 5.56617 31.1816 4.3173C31.1974 6.27469 30.9177 9.5959 29.1744 12.4702C27.4312 15.3444 24.302 17.6441 22.3415 18.893Z" fill="black"/>
</svg>
